<?xml version="1.0" encoding="UTF-8" standalone="no"?>
<!-- Generator: Adobe Illustrator 19.1.0, SVG Export Plug-In . SVG Version: 6.00 Build 0)  -->

<svg
   xmlns:dc="http://purl.org/dc/elements/1.1/"
   xmlns:cc="http://creativecommons.org/ns#"
   xmlns:rdf="http://www.w3.org/1999/02/22-rdf-syntax-ns#"
   xmlns:svg="http://www.w3.org/2000/svg"
   xmlns="http://www.w3.org/2000/svg"
   xmlns:sodipodi="http://sodipodi.sourceforge.net/DTD/sodipodi-0.dtd"
   xmlns:inkscape="http://www.inkscape.org/namespaces/inkscape"
   version="1.1"
   id="Layer_1"
   x="0px"
   y="0px"
   viewBox="-668 452.5 16 16"
   xml:space="preserve"
   sodipodi:docname="icon-itch.svg"
   inkscape:version="0.92.2 5c3e80d, 2017-08-06"
   width="16"
   height="16"><metadata
     id="metadata13"><rdf:RDF><cc:Work
         rdf:about=""><dc:format>image/svg+xml</dc:format><dc:type
           rdf:resource="http://purl.org/dc/dcmitype/StillImage" /><dc:title></dc:title></cc:Work></rdf:RDF></metadata><defs
     id="defs11" /><sodipodi:namedview
     pagecolor="#ffffff"
     bordercolor="#666666"
     borderopacity="1"
     objecttolerance="10"
     gridtolerance="10"
     guidetolerance="10"
     inkscape:pageopacity="0"
     inkscape:pageshadow="2"
     inkscape:window-width="1432"
     inkscape:window-height="874"
     id="namedview9"
     showgrid="false"
     inkscape:zoom="19.487356"
     inkscape:cx="5.4657465"
     inkscape:cy="10.060591"
     inkscape:window-x="0"
     inkscape:window-y="22"
     inkscape:window-maximized="0"
     inkscape:current-layer="Layer_1" /><path
     d="m -665.90658,453.29196 -2.09662,2.46126 v 0.7019 c 0,0.88423 0.82042,1.66818 1.55879,1.66818 0.89334,0 1.63172,-0.74749 1.63172,-1.64083 0,0.89334 0.72015,1.64083 1.60437,1.64083 0.88423,0 1.58614,-0.74749 1.58614,-1.64083 0,0.89334 0.76572,1.64083 1.64995,1.64083 0.89335,0 1.63172,-0.74749 1.63172,-1.64083 0,0.89334 0.72015,1.64083 1.61349,1.64083 0.89334,0 1.57702,-0.74749 1.57702,-1.64083 0,0.89334 0.76573,1.64083 1.65907,1.64083 0.89334,0 1.6226,-0.74749 1.6226,-1.64083 v -0.72925 l -2.27894,-2.46126 c -3.97446,-0.009 -11.75931,0 -11.75931,0 z"
     id="path2"
     inkscape:connector-curvature="0"
     style="stroke-width:0.09115746" /><path
     d="m -664.81269,457.7131 c -0.082,0.15497 -0.20054,0.28258 -0.32816,0.40109 -0.33729,0.33728 -0.80219,0.53783 -1.30356,0.53783 -0.12762,0 -0.4649,-0.0729 -0.4649,-0.0729 v 9.11575 h 14.03825 v -9.17044 c -0.20966,0.082 -0.38287,0.12762 -0.61987,0.12762 -0.51048,0 -0.97539,-0.20966 -1.30355,-0.53783 -0.11851,-0.11851 -0.2279,-0.25524 -0.30994,-0.4102 -0.082,0.15496 -0.19143,0.29169 -0.30994,0.4102 -0.33728,0.33728 -0.79306,0.53783 -1.30355,0.53783 -0.51047,0 -0.97538,-0.20966 -1.30355,-0.53783 -0.1185,-0.11851 -0.22789,-0.25524 -0.30993,-0.4102 -0.082,0.15496 -0.19143,0.29169 -0.30994,0.4102 -0.33728,0.33728 -0.80218,0.53783 -1.30355,0.53783 -0.51048,0 -0.97539,-0.20966 -1.30355,-0.53783 -0.1185,-0.11851 -0.2279,-0.25524 -0.30994,-0.4102 -0.082,0.15496 -0.19143,0.29169 -0.30993,0.4102 -0.33728,0.33728 -0.79307,0.53783 -1.30356,0.53783 -0.51047,0 -0.97538,-0.20966 -1.30355,-0.53783 -0.15497,-0.11851 -0.25524,-0.24612 -0.33728,-0.40109 z m 2.0237,1.68642 c 0.61075,0 1.04831,0.40109 1.20328,0.99361 h 3.38194 c 0.15496,-0.60164 0.58341,-0.99361 1.20328,-0.99361 0.97538,0 2.04192,1.00272 2.37921,2.21511 l 0.80218,2.91705 c 0.33728,1.2215 -0.19143,2.21512 -1.16682,2.21512 -0.85687,0 -1.77756,-0.76572 -2.22424,-1.78668 h -5.36005 c -0.43756,1.01184 -1.36737,1.78668 -2.22425,1.78668 -0.97538,0 -1.49498,-1.00273 -1.16681,-2.21512 l 0.80218,-2.91705 c 0.32817,-1.2215 1.39471,-2.21511 2.3701,-2.21511 z"
     id="path4"
     inkscape:connector-curvature="0"
     sodipodi:nodetypes="ccsccccsscssscssscssccsccsccsccsccs"
     style="stroke-width:0.09115746" /><path
     d="m -661.10258,461.97927 -1.13947,1.23062 h 1.13035 v 1.26709 h 2.24248 v -1.26709 h 1.20328 l -1.13947,-1.23062 -1.13947,-1.23063 z"
     id="path6"
     inkscape:connector-curvature="0"
     style="stroke-width:0.09115746" /></svg>